<?xml version="1.0" ?><svg xmlns="http://www.w3.org/2000/svg" width="128" height="128" viewBox="0 0 128 128"><g><path d="M10.9,55.2h.024a.5.5,0,0,0,.476-.523c-.007-.164-.624-16.342,11.768-18.45a9.929,9.929,0,0,0-.018,7.983,4.975,4.975,0,0,0,3.568,2.741,5.688,5.688,0,0,0,6.337-8.524c-1.445-2.417-4.412-3.627-8.238-3.394,3.123-5.782,11.362-10.873,25.71-8.686,1.693,3.131,5.129,5.415,8.509,7.647,1.578,1.042,3.209,2.119,4.664,3.277a.5.5,0,0,0,.623,0c1.454-1.158,3.086-2.235,4.663-3.277a47.774,47.774,0,0,0,5.572-4.078c4.881,3.244,9.89,4.91,14.464,4.91a16.185,16.185,0,0,0,8.461-2.262c.063.031.127.061.192.091l.129.061c12.462,5.69,21.379-9.142,21.467-9.292a.5.5,0,0,0-.861-.508c-.083.142-8.433,14.01-19.944,9a9.91,9.91,0,0,0,4.376-6.654A4.994,4.994,0,0,0,101.358,21,5.684,5.684,0,0,0,91.4,24.671c-.112,2.814,1.714,5.454,5.041,7.341-5.8,3.17-13.6,2.137-21.133-2.8,2.648-2.648,4.16-5.877,2.707-10.5a6.456,6.456,0,0,0-6.448-4.425,8.668,8.668,0,0,0-7.55,5.062,8.662,8.662,0,0,0-7.537-5.062,6.449,6.449,0,0,0-6.47,4.445,9.617,9.617,0,0,0,.028,6.546C35.1,23.2,26.641,28.91,23.637,35.145c-.117.015-.236.033-.351.05C9.737,37.249,10.393,54.549,10.4,54.723A.5.5,0,0,0,10.9,55.2ZM92.394,24.711a4.923,4.923,0,0,1,3-4.34,4.245,4.245,0,0,1,1.593-.311,5.354,5.354,0,0,1,3.681,1.659,4.031,4.031,0,0,1,1.184,3.438c-.233,2.23-1.916,4.607-4.417,6.257C94.124,29.7,92.293,27.267,92.394,24.711ZM50.953,19.049a5.5,5.5,0,0,1,5.366-3.766h.136a7.735,7.735,0,0,1,7.08,5.584.5.5,0,0,0,.476.35h0a.5.5,0,0,0,.477-.349,7.744,7.744,0,0,1,7.093-5.586,5.515,5.515,0,0,1,5.482,3.746c2.195,6.984-3.062,10.455-8.628,14.13-1.485.981-3.018,1.993-4.424,3.084-1.406-1.091-2.938-2.1-4.424-3.084C54.021,29.484,48.765,26.013,50.953,19.049ZM24.31,36.076c3.705-.372,6.573.666,7.886,2.863A4.692,4.692,0,0,1,26.9,45.968a4.007,4.007,0,0,1-2.865-2.218C23.008,41.753,23.117,38.835,24.31,36.076Z"/><path d="M19.979,103.007c-3.393,1.242-4.834,3.361-5.142,5.253a4.662,4.662,0,0,0-2.974,5.04.5.5,0,0,0,.492.417.443.443,0,0,0,.081-.007.5.5,0,0,0,.414-.573,3.625,3.625,0,0,1,1.933-3.762,4.691,4.691,0,0,0,.059.485,2.879,2.879,0,0,0,2.576,2.652,2.231,2.231,0,0,0,2.062-1.247,2.315,2.315,0,0,0-.241-2.425c-.387-.5-1.325-1.257-3.311-.881.414-1.46,1.7-3.027,4.395-4.013a.5.5,0,0,0-.344-.939ZM16,108.966a2.377,2.377,0,0,1,2.456.489,1.309,1.309,0,0,1,.13,1.371,1.236,1.236,0,0,1-1.163.686c-.746,0-1.4-.751-1.591-1.827a3.531,3.531,0,0,1-.054-.668Q15.881,108.99,16,108.966Z"/><path d="M114.375,101.132a.5.5,0,0,0-.479.52,3.6,3.6,0,0,1-2.386,3.493,4.475,4.475,0,0,0,0-.491,2.88,2.88,0,0,0-2.227-2.951,2.234,2.234,0,0,0-2.2.983,2.314,2.314,0,0,0-.062,2.435c.323.54,1.151,1.409,3.177,1.285-.593,1.4-2.063,2.792-4.859,3.437a.5.5,0,0,0,.112.987.488.488,0,0,0,.113-.012c3.521-.813,5.213-2.736,5.753-4.575a4.66,4.66,0,0,0,3.577-4.632A.5.5,0,0,0,114.375,101.132Zm-3.891,4.244c-.074.009-.15.016-.227.023-1.167.093-2.013-.182-2.376-.79a1.31,1.31,0,0,1,.04-1.377,1.21,1.21,0,0,1,1.045-.549,1.441,1.441,0,0,1,.2.013c.74.092,1.3.919,1.352,2.009A3.557,3.557,0,0,1,110.484,105.376Z"/><path d="M114.35,63.051c-1.516.106-4.933-3.344-8.851-7.3-1.339-1.353-2.772-2.8-4.28-4.26q-.622-.6-1.213-1.162c-1.183-1.121-2.279-2.12-3.323-3.032-7.5-6.494-17.48-12.934-28.262-5.031a16.131,16.131,0,0,0-5.942,8.766A17.964,17.964,0,0,0,57.5,45.74c-10.644-7.455-20.375.1-27.664,7.52-1.06,1.081-2.172,2.281-3.314,3.567-.285.321-.572.643-.866.98l0,.01c-1.459,1.666-2.813,3.284-4.123,4.849-3.575,4.274-6.663,7.965-8.213,8.024-6.276.224-6.38,3.937-6.382,4.095a.5.5,0,0,0,.147.358A132.4,132.4,0,0,0,20.764,87.057a7.458,7.458,0,0,0,12.342,8.284A131.965,131.965,0,0,0,49.6,103.6a.5.5,0,0,0,.192.039.511.511,0,0,0,.2-.04c.145-.062,3.535-1.574,1.354-7.464-.535-1.447,1.686-5.683,4.258-10.587.889-1.694,1.84-3.508,2.78-5.4l0,0h0l.007-.015c.651-1.3,1.232-2.516,1.769-3.684.3-.646.583-1.277.847-1.882,0-.006,0-.012,0-.018a48.934,48.934,0,0,0,3.184-9.728,60.306,60.306,0,0,0,2.722,5.786q.336.63.693,1.276c.716,1.293,1.5,2.642,2.381,4.087,1.155,1.906,2.3,3.694,3.4,5.424,3,4.7,5.584,8.758,5.169,10.255-1.682,6.064,1.829,7.286,1.979,7.335a.513.513,0,0,0,.155.025.487.487,0,0,0,.23-.057,132.31,132.31,0,0,0,15.521-9.463,7.456,7.456,0,0,0,11.624-9.262,132.2,132.2,0,0,0,12.888-13.26.5.5,0,0,0,.116-.369C121.052,66.442,120.627,62.752,114.35,63.051ZM70.61,75.067l-.131-.219c-.413-.687-.809-1.356-1.182-2-.018-.031-.038-.064-.056-.1-.38-.661-.734-1.3-1.078-1.932l-.117-.215a85.781,85.781,0,0,0,28.36-22.212q.19.167.382.338c.135.12.268.238.4.361.256.231.517.47.78.712.078.072.153.139.231.212q.514.476,1.051.984c.113.106.23.219.344.328l.587.562a97.753,97.753,0,0,1-13.256,12.89A85.174,85.174,0,0,1,70.61,75.067ZM69.028,43.061a16.159,16.159,0,0,1,9.716-3.419c6.312,0,12.113,3.986,16.9,8.086A84.778,84.778,0,0,1,67.573,69.712,53.934,53.934,0,0,1,64.5,62.864a.5.5,0,0,0-.089-.256,20.993,20.993,0,0,1-1.283-9.951.5.5,0,0,0,.054-.218c0-.013-.008-.025-.009-.038A14.947,14.947,0,0,1,69.028,43.061ZM59.55,75.371c-.026.059-.051.115-.078.174-.121.267-.249.541-.375.814-.377.811-.782,1.658-1.221,2.55l-.184.375a97.575,97.575,0,0,1-16.268-8.73A85,85,0,0,1,26.707,58.128l.235-.267c1.1-1.246,2.144-2.385,3.158-3.436l.082-.085a85.694,85.694,0,0,0,29.7,20.292C59.77,74.877,59.663,75.122,59.55,75.371ZM27.291,97.14a6.474,6.474,0,0,1-5.726-9.472q5.16,3.843,10.672,7.161A6.471,6.471,0,0,1,27.291,97.14ZM54.713,85.085c-2.9,5.534-5,9.533-4.311,11.4,1.578,4.262-.081,5.743-.64,6.1A130.136,130.136,0,0,1,7.955,74.605c.12-.659.86-2.754,5.4-2.916,2-.076,4.91-3.559,8.943-8.381,1.2-1.431,2.442-2.912,3.759-4.427a85.974,85.974,0,0,0,14.816,12.5,98.679,98.679,0,0,0,16.38,8.785C56.388,81.883,55.524,83.538,54.713,85.085ZM60.278,73.7A84.657,84.657,0,0,1,30.891,53.615c6.972-7.023,16.166-13.967,26.027-7.06a16.465,16.465,0,0,1,5.256,5.991A22.388,22.388,0,0,0,63.5,62.961,43.311,43.311,0,0,1,60.278,73.7Zm48.053,10.646a6.431,6.431,0,0,1-2.432,5.06,6.519,6.519,0,0,1-8.639-.5q5.223-3.756,10.051-8.008A6.407,6.407,0,0,1,108.331,84.349ZM80.671,97.956c-.582-.312-2.368-1.66-1.153-6.038.534-1.926-1.909-5.757-5.289-11.059-1.008-1.58-2.048-3.22-3.1-4.94A86.133,86.133,0,0,0,87.553,65.556,98.771,98.771,0,0,0,100.9,52.581c1.362,1.328,2.668,2.641,3.889,3.874,4.421,4.464,7.647,7.687,9.608,7.595,4.549-.222,5.459,1.809,5.635,2.457A130.248,130.248,0,0,1,80.671,97.956Z"/></g></svg>